<svg xmlns="http://www.w3.org/2000/svg" viewBox="0 0 1282.86 214.63"><defs><style>.cls-1{fill:#003cdc;}</style></defs><g id="Calque_2" data-name="Calque 2"><g id="Calque_1-2" data-name="Calque 1"><path class="cls-1" d="M171.43,3.52H0V175H171.43Zm-7.81,53.86v63.7a176,176,0,0,0-14.07-31.85A176,176,0,0,0,163.62,57.38ZM117.57,167.24H53.87a175.61,175.61,0,0,0,31.85-14.07A175,175,0,0,0,117.57,167.24ZM85.72,25.36A176,176,0,0,0,53.87,11.3h63.7A175.65,175.65,0,0,0,85.72,25.36Zm58.71,55.5A170.61,170.61,0,0,0,94.09,30.52a160.39,160.39,0,0,1,68.72-18.38A160.47,160.47,0,0,1,144.43,80.86Zm-4.84,8.37A161.72,161.72,0,0,1,85.72,143.1,161.65,161.65,0,0,1,31.84,89.23,161.75,161.75,0,0,1,85.72,35.36,161.81,161.81,0,0,1,139.59,89.23ZM27,80.86A160.61,160.61,0,0,1,8.62,12.14,160.39,160.39,0,0,1,77.34,30.52,170.72,170.72,0,0,0,27,80.86Zm0,16.75A170.84,170.84,0,0,0,77.34,148,160.53,160.53,0,0,1,8.62,166.33,160.53,160.53,0,0,1,27,97.61Zm117.43,0a160.39,160.39,0,0,1,18.38,68.72A160.61,160.61,0,0,1,94.09,148,170.72,170.72,0,0,0,144.43,97.61ZM21.73,89.23A175.61,175.61,0,0,0,7.66,121.08V57.38A176,176,0,0,0,21.73,89.23Z"/><path class="cls-1" d="M218.87,175H263V3.52H218.87Z"/><path class="cls-1" d="M687.9,175h44.16V39.64C732.06,4.8,718.91,0,704.71,0,694.07,0,685,4,675.4,13l-6.63,6.21V3.52H628.83V175H673V50.9c0-7.88,5.71-8.5,7.45-8.5s7.46.62,7.46,8.5Z"/><path class="cls-1" d="M603.6,17.94C595.72,5.7,583.32,0,564.58,0c-19.27,0-32.13,5.8-40.47,18.26-8.56,12.79-12.55,32.55-12.55,62.18V98c0,30,3.78,49.9,11.9,62.5,7.88,12.24,20.27,17.94,39,17.94,19.27,0,32.14-5.81,40.48-18.27,8.57-12.79,12.56-32.54,12.56-62.17V80.44C615.5,50.4,611.71,30.54,603.6,17.94ZM569.66,131.49c0,6-3.34,7.29-6.14,7.29s-6.14-1.26-6.14-7.29V47c0-6,3.34-7.3,6.14-7.3s6.14,1.27,6.14,7.3Z"/><path class="cls-1" d="M351.5,0c-9.84,0-18.69,4.12-27.84,13L317,19.46V3.52H277V214.63H321.2v-51.3l6.8,7.23a24.1,24.1,0,0,0,18.58,7.91c22.59,0,34-21.15,34-62.86V62.86C380.62,6.52,364,0,351.5,0ZM333.19,131.49c0,6-3.34,7.29-6.14,7.29s-6.14-1.26-6.14-7.29V47c0-6,3.34-7.3,6.14-7.3s6.14,1.27,6.14,7.3Z"/><path class="cls-1" d="M469.11,0c-9.84,0-18.69,4.12-27.84,13l-6.68,6.49V3.52H394.65V214.63h44.16v-51.3l6.81,7.23a24.09,24.09,0,0,0,18.58,7.91c22.58,0,34-21.15,34-62.86V62.86C498.23,6.52,481.61,0,469.11,0ZM450.8,131.49c0,6-3.34,7.29-6.14,7.29s-6.14-1.26-6.14-7.29V47c0-6,3.34-7.3,6.14-7.3S450.8,41,450.8,47Z"/><path class="cls-1" d="M776.22,3.5H797.5q7.31,0,11,2.85a12.64,12.64,0,0,1,4.66,7.52,59.06,59.06,0,0,1,1,12.07,55.27,55.27,0,0,1-1.06,11.86,13.41,13.41,0,0,1-4.71,7.63q-3.66,3-11,3H782.47v28h-6.25Zm19.91,39.38c3.52,0,6.12-.63,7.78-1.9a8.81,8.81,0,0,0,3.23-5.35,49,49,0,0,0,.74-9.69,52.09,52.09,0,0,0-.69-9.74A8.34,8.34,0,0,0,804,11q-2.49-1.85-7.78-1.85H782.47V42.88Z"/><path class="cls-1" d="M833.29,74.44q-4.35-2.76-5.66-10.06T826.3,39.92q0-17.16,1.33-24.46T833.29,5.4q4.34-2.75,14.51-2.75T862.41,5.4q4.33,2.76,5.61,10t1.27,24.51q0,17.27-1.27,24.51t-5.61,10q-4.35,2.75-14.61,2.75T833.29,74.44Zm24.88-4.5Q861,68.29,862,62.05t1-22.13q0-15.89-1-22.13T858.17,9.9q-2.85-1.63-10.37-1.64c-5,0-8.47.55-10.38,1.64s-3.2,3.73-3.87,7.89-1,11.54-1,22.13.33,18,1,22.13,2,6.79,3.87,7.89,5.36,1.64,10.38,1.64S856.27,71,858.17,69.94Z"/><path class="cls-1" d="M892.74,76.82c-3.28-.25-6.12-.58-8.52-1v-5.5q3.71.52,8.2.9t7.68.37a32.91,32.91,0,0,0,6.83-.58,10.62,10.62,0,0,0,4.5-2.17,7,7,0,0,0,2.23-4.35,46.69,46.69,0,0,0,.52-7.83,63.11,63.11,0,0,0-.42-8.95,4.69,4.69,0,0,0-2.12-3.49,19.46,19.46,0,0,0-6-1.75l-13-2c-3-.42-5.15-1.38-6.56-2.86a10.55,10.55,0,0,1-2.7-5.66,59.84,59.84,0,0,1-.58-9.48q0-10.69,4.5-15.25T902,2.65q4.34,0,8.73.42a51.49,51.49,0,0,1,6.94,1.06v5.4q-3-.53-7-.9t-7.41-.37a29.24,29.24,0,0,0-7.57.79,8.32,8.32,0,0,0-4.29,2.6,9.41,9.41,0,0,0-2,4.29,35.64,35.64,0,0,0-.48,6.51,41.57,41.57,0,0,0,.48,7.52,5.15,5.15,0,0,0,1.8,3.28,11.24,11.24,0,0,0,4.5,1.48L908,36.64A23.26,23.26,0,0,1,915.4,39a9.44,9.44,0,0,1,4,5.08q1.07,2.76,1.06,11.86,0,7.94-1.69,12.49a12,12,0,0,1-5.67,6.67q-4,2.12-11.06,2.12Q897.66,77.19,892.74,76.82Z"/><path class="cls-1" d="M936,76.34V3.5h6.15V76.34Z"/><path class="cls-1" d="M971.78,76.34V9.21H955.05V3.5h39.71V9.21H978V76.34Z"/><path class="cls-1" d="M1007.67,76.34V3.5h6.15V76.34Z"/><path class="cls-1" d="M1045.16,76.34,1026.1,3.5h6.46L1049,67.34h.53L1065.91,3.5h6.14L1053,76.34Z"/><path class="cls-1" d="M1083.91,76.34V3.5h33.88V9.11h-27.53V36.74h23.93v5.51h-23.93V70.73h27.53v5.61Z"/><path class="cls-1" d="M787.13,175.17V108H770.4v-5.72h39.7V108H793.37v67.13Z"/><path class="cls-1" d="M822.6,175.17V102.32h33.88v5.61H829v27.64h23.93v5.5H829v28.49h27.53v5.61Z"/><path class="cls-1" d="M896.29,175.7q-3.28.31-6,.31-9.42,0-13.71-2.7T870.72,163q-1.54-7.56-1.54-24.3,0-16.52,1.54-24.08t5.82-10.38q4.29-2.81,13.71-2.81a45.62,45.62,0,0,1,6.09.43,49.18,49.18,0,0,1,5.35.95V108a62.13,62.13,0,0,0-10.16-1q-7.85,0-11,2t-4.13,8.2q-1,6.2-1,21.44t1,21.44q1,6.19,4.13,8.21t11,2a55.55,55.55,0,0,0,10.37-1v5.4A47.55,47.55,0,0,1,896.29,175.7Z"/><path class="cls-1" d="M950.29,175.17V141.29H922.34v33.88h-6.15V102.32h6.15v33.14h27.95V102.32h6.14v72.85Z"/><path class="cls-1" d="M1008.84,175.17,981.31,116h-.42v59.19H975V102.32h6.67L1008.84,161h.42V102.32h6v72.85Z"/><path class="cls-1" d="M1038.81,173.26q-4.35-2.74-5.67-10.06t-1.32-24.46q0-17.15,1.32-24.46t5.67-10q4.34-2.76,14.5-2.76t14.61,2.76q4.35,2.74,5.61,10t1.27,24.51q0,17.26-1.27,24.52t-5.61,10q-4.34,2.76-14.61,2.75T1038.81,173.26Zm24.88-4.5q2.85-1.63,3.86-7.89t1-22.13q0-15.87-1-22.13t-3.86-7.88q-2.87-1.65-10.38-1.65t-10.38,1.65q-2.85,1.63-3.86,7.88t-1,22.13q0,15.88,1,22.13t3.86,7.89q2.86,1.65,10.38,1.64T1063.69,168.76Z"/><path class="cls-1" d="M1091.43,175.17V102.32h6.35v67.13h24.46v5.72Z"/><path class="cls-1" d="M1139.29,173.26q-4.35-2.74-5.67-10.06t-1.32-24.46q0-17.15,1.32-24.46t5.67-10q4.34-2.76,14.5-2.76t14.61,2.76q4.35,2.74,5.62,10t1.27,24.51q0,17.26-1.27,24.52t-5.62,10q-4.34,2.76-14.61,2.75T1139.29,173.26Zm24.88-4.5c1.91-1.09,3.19-3.72,3.86-7.89s1-11.54,1-22.13-.34-18-1-22.13-2-6.79-3.86-7.88-5.37-1.65-10.38-1.65-8.47.55-10.37,1.65-3.2,3.72-3.87,7.88-1,11.55-1,22.13.33,18,1,22.13,2,6.8,3.87,7.89,5.36,1.64,10.37,1.64S1162.26,169.86,1164.17,168.76Z"/><path class="cls-1" d="M1210.86,142.66v-5.5h18.21v37a82.65,82.65,0,0,1-8.41,1.37,71.82,71.82,0,0,1-8.31.53q-9.54,0-14.09-2.75t-6.35-10.43q-1.8-7.68-1.8-24.09,0-16.2,1.75-23.87t6.35-10.54q4.61-2.85,14.24-2.86a69.47,69.47,0,0,1,8.74.59,53.62,53.62,0,0,1,7.67,1.43v5.18c-2.11-.42-4.48-.79-7.09-1.11a55.12,55.12,0,0,0-6.46-.48q-8.89,0-12.49,1.65t-5,8q-1.44,6.36-1.43,22,0,14.4,1.06,20.76t4.28,8.68c2.16,1.55,5.7,2.33,10.65,2.33a54.75,54.75,0,0,0,5.66-.32,45.51,45.51,0,0,0,4.92-.74V142.66Z"/><path class="cls-1" d="M1257.45,175.17v-28.7l-19.06-44.15H1245l15.46,36.42h.63l15.46-36.42h6.35l-19.16,44.15v28.7Z"/></g></g></svg>